{
  "accessors": [
    {
      "bufferView": 1,
      "componentType": 5126,
      "count": 7028,
      "max": [
        1.8265730142593384,
        -1.5231690406799316,
        11.29819393157959
      ],
      "min": [
        -13.029376983642578,
        -29.804691314697266,
        -4.8039960861206055
      ],
      "type": "VEC3"
    },
    {
      "bufferView": 1,
      "byteOffset": 84336,
      "componentType": 5126,
      "count": 7028,
      "max": [
        0.9999405145645142,
        0.9999286532402039,
        0.9999106526374817
      ],
      "min": [
        -0.9998998641967773,
        -0.9997740387916565,
        -0.9998098015785217
      ],
      "type": "VEC3"
    },
    {
      "bufferView": 2,
      "componentType": 5126,
      "count": 7028,
      "max": [
        0.9725490212440491,
        0.9450980424880981,
        0.8352941274642944,
        1.0
      ],
      "min": [
        0.0117647061124444,
        0.01568627543747425,
        0.0,
        1.0
      ],
      "type": "VEC4"
    },
    {
      "bufferView": 0,
      "componentType": 5125,
      "count": 39357,
      "type": "SCALAR"
    }
  ],
  "asset": {
    "extras": {
      "author": "654230005 (https://sketchfab.com/654230005)",
      "license": "SKETCHFAB Standard (https://sketchfab.com/licenses)",
      "source": "https://sketchfab.com/3d-models/654230005-photogrammetry-spongebob-73648b93d5164a71aa203fcdbe0753cd",
      "title": "654230005 Photogrammetry spongebob"
    },
    "generator": "Sketchfab-16.21.0",
    "version": "2.0"
  },
  "bufferViews": [
    {
      "buffer": 0,
      "byteLength": 157428,
      "name": "floatBufferViews",
      "target": 34963
    },
    {
      "buffer": 0,
      "byteLength": 168672,
      "byteOffset": 157428,
      "byteStride": 12,
      "name": "floatBufferViews",
      "target": 34962
    },
    {
      "buffer": 0,
      "byteLength": 112448,
      "byteOffset": 326100,
      "byteStride": 16,
      "name": "floatBufferViews",
      "target": 34962
    }
  ],
  "buffers": [
    {
      "byteLength": 438548,
      "uri": "scene.bin"
    }
  ],
  "materials": [
    {
      "doubleSided": true,
      "name": "Material_Global",
      "pbrMetallicRoughness": {
        "metallicFactor": 0.0,
        "roughnessFactor": 0.6
      }
    }
  ],
  "meshes": [
    {
      "name": "Object_0",
      "primitives": [
        {
          "attributes": {
            "COLOR_0": 2,
            "NORMAL": 1,
            "POSITION": 0
          },
          "indices": 3,
          "material": 0,
          "mode": 4
        }
      ]
    }
  ],
  "nodes": [
    {
      "children": [
        1
      ],
      "matrix": [
        -0.5626599192619324,
        -0.005963423289358432,
        -0.8266669511795044,
        0.0,
        0.03059920109808445,
        -0.999439001083374,
        -0.013617173768580182,
        0.0,
        -0.8261219263076782,
        -0.03295718505978597,
        0.5625267624855042,
        0.0,
        0.0,
        0.0,
        0.0,
        1.0
      ],
      "name": "Sketchfab_model"
    },
    {
      "children": [
        2
      ],
      "name": "Mesh_1.obj.cleaner.materialmerger.gles"
    },
    {
      "mesh": 0,
      "name": "Object_2"
    }
  ],
  "scene": 0,
  "scenes": [
    {
      "name": "Sketchfab_Scene",
      "nodes": [
        0
      ]
    }
  ]
}
